HIERARCHY
ROOT hips
{
  OFFSET 0 10.074487846421558 1.314567655973056
  CHANNELS 6 Xposition Yposition Zposition Yrotation Xrotation Zrotation
  JOINT spine
  {
    OFFSET -7.042773748992335e-31 0.5690686926897363 0
    CHANNELS 3 Yrotation Xrotation Zrotation
    JOINT chest
    {
      OFFSET 0 1.2435964857087873 0
      CHANNELS 3 Yrotation Xrotation Zrotation
      JOINT upperChest
      {
        OFFSET 0 1.194994586872362 0
        CHANNELS 3 Yrotation Xrotation Zrotation
        JOINT neck
        {
          OFFSET 0 1.515103653293861 0
          CHANNELS 3 Yrotation Xrotation Zrotation
          JOINT head
          {
            OFFSET 0 0.8111851616465653 0
            CHANNELS 3 Yrotation Xrotation Zrotation
            JOINT leftEye
            {
              OFFSET 0.27141371691966987 0.7490044407698551 0.18219031050045686
              CHANNELS 3 Yrotation Xrotation Zrotation
              End Site
              {
                OFFSET 0.27141371691966987 0.7490044407698551 0.18219031050045686
              }
            }
            JOINT rightEye
            {
              OFFSET -0.2714136877644943 0.7490044019380786 0.18219040411850668
              CHANNELS 3 Yrotation Xrotation Zrotation
              End Site
              {
                OFFSET -0.2714136877644943 0.7490044019380786 0.18219040411850668
              }
            }
          }
        }
        JOINT leftShoulder
        {
          OFFSET 0.4137993136083964 1.1593397335613034 0
          CHANNELS 3 Yrotation Xrotation Zrotation
          JOINT leftUpperArm
          {
            OFFSET 1.0096991868951026 0 0
            CHANNELS 3 Yrotation Xrotation Zrotation
            JOINT leftLowerArm
            {
              OFFSET 2.418380967671622 0 0
              CHANNELS 3 Yrotation Xrotation Zrotation
              JOINT leftHand
              {
                OFFSET 2.361538296260114 0 0
                CHANNELS 3 Yrotation Xrotation Zrotation
                JOINT leftIndexProximal
                {
                  OFFSET 0.7243699271447109 0.08118285989887508 0.2022042461579805
                  CHANNELS 3 Yrotation Xrotation Zrotation
                  JOINT leftIndexIntermediate
                  {
                    OFFSET 0.36553107045252053 -0.010567764853200323 -0.014102670024158437
                    CHANNELS 3 Yrotation Xrotation Zrotation
                    JOINT leftIndexDistal
                    {
                      OFFSET 0.22505120770060527 -0.007821041598631284 -0.007511611613336286
                      CHANNELS 3 Yrotation Xrotation Zrotation
                      End Site
                      {
                        OFFSET 0.22505120770060527 -0.007821041598631284 -0.007511611613336286
                      }
                    }
                  }
                }
                JOINT leftLittleProximal
                {
                  OFFSET 0.6721063881632002 0.08118279568569564 -0.3209324945517917
                  CHANNELS 3 Yrotation Xrotation Zrotation
                  JOINT leftLittleIntermediate
                  {
                    OFFSET 0.34587329423120616 5.3042709780015684e-8 -5.929537746918179e-8
                    CHANNELS 3 Yrotation Xrotation Zrotation
                    JOINT leftLittleDistal
                    {
                      OFFSET 0.1992782500022232 0.0030983716482184676 0.0038310952896712935
                      CHANNELS 3 Yrotation Xrotation Zrotation
                      End Site
                      {
                        OFFSET 0.1992782500022232 0.0030983716482184676 0.0038310952896712935
                      }
                    }
                  }
                }
                JOINT leftMiddleProximal
                {
                  OFFSET 0.7301229696860206 0.08118412848995638 0.022516891543707507
                  CHANNELS 3 Yrotation Xrotation Zrotation
                  JOINT leftMiddleIntermediate
                  {
                    OFFSET 0.4076277831942017 -0.000001240188283180288 -1.6203245635504349e-7
                    CHANNELS 3 Yrotation Xrotation Zrotation
                    JOINT leftMiddleDistal
                    {
                      OFFSET 0.2514739255593972 0.0000013850839168938478 -1.8644847207816007e-8
                      CHANNELS 3 Yrotation Xrotation Zrotation
                      End Site
                      {
                        OFFSET 0.2514739255593972 0.0000013850839168938478 -1.8644847207816007e-8
                      }
                    }
                  }
                }
                JOINT leftRingProximal
                {
                  OFFSET 0.7218060861525873 0.08118280646416753 -0.1494689818508163
                  CHANNELS 3 Yrotation Xrotation Zrotation
                  JOINT leftRingIntermediate
                  {
                    OFFSET 0.3781267508900358 0.000001373626195677602 -1.4143108284514483e-7
                    CHANNELS 3 Yrotation Xrotation Zrotation
                    JOINT leftRingDistal
                    {
                      OFFSET 0.21814333268795483 -0.0027137626495670197 -0.004991775417842292
                      CHANNELS 3 Yrotation Xrotation Zrotation
                      End Site
                      {
                        OFFSET 0.21814333268795483 -0.0027137626495670197 -0.004991775417842292
                      }
                    }
                  }
                }
                JOINT leftThumbProximal
                {
                  OFFSET 0.10743676110519984 -0.16423092885053192 -0.07708859146227388
                  CHANNELS 3 Yrotation Xrotation Zrotation
                  JOINT leftThumbIntermediate
                  {
                    OFFSET 0.40350402100066307 -0.01735099334274981 0.315629965828783
                    CHANNELS 3 Yrotation Xrotation Zrotation
                    JOINT leftThumbDistal
                    {
                      OFFSET 0.2320014489535681 -0.01842351809041043 0.21271298411519196
                      CHANNELS 3 Yrotation Xrotation Zrotation
                      End Site
                      {
                        OFFSET 0.2320014489535681 -0.01842351809041043 0.21271298411519196
                      }
                    }
                  }
                }
              }
            }
          }
        }
        JOINT rightShoulder
        {
          OFFSET -0.41379931360839656 1.1593397335613034 0
          CHANNELS 3 Yrotation Xrotation Zrotation
          JOINT rightUpperArm
          {
            OFFSET -1.0096991868951024 0 0
            CHANNELS 3 Yrotation Xrotation Zrotation
            JOINT rightLowerArm
            {
              OFFSET -2.4183809676716232 0 0
              CHANNELS 3 Yrotation Xrotation Zrotation
              JOINT rightHand
              {
                OFFSET -2.3615382962601132 0 0
                CHANNELS 3 Yrotation Xrotation Zrotation
                JOINT rightIndexProximal
                {
                  OFFSET -0.7243699271447109 0.08118285989887508 0.2022042461579805
                  CHANNELS 3 Yrotation Xrotation Zrotation
                  JOINT rightIndexIntermediate
                  {
                    OFFSET -0.36553107045252053 -0.010567764853200323 -0.014102670024158437
                    CHANNELS 3 Yrotation Xrotation Zrotation
                    JOINT rightIndexDistal
                    {
                      OFFSET -0.22505120770060527 -0.007821041598631284 -0.007511611613336286
                      CHANNELS 3 Yrotation Xrotation Zrotation
                      End Site
                      {
                        OFFSET -0.22505120770060527 -0.007821041598631284 -0.007511611613336286
                      }
                    }
                  }
                }
                JOINT rightLittleProximal
                {
                  OFFSET -0.6721063881632002 0.08118279568569564 -0.3209324945517917
                  CHANNELS 3 Yrotation Xrotation Zrotation
                  JOINT rightLittleIntermediate
                  {
                    OFFSET -0.34587329423120616 5.3042709780015684e-8 -5.929537746918179e-8
                    CHANNELS 3 Yrotation Xrotation Zrotation
                    JOINT rightLittleDistal
                    {
                      OFFSET -0.1992782500022232 0.0030983716482184676 0.0038310952896712935
                      CHANNELS 3 Yrotation Xrotation Zrotation
                      End Site
                      {
                        OFFSET -0.1992782500022232 0.0030983716482184676 0.0038310952896712935
                      }
                    }
                  }
                }
                JOINT rightMiddleProximal
                {
                  OFFSET -0.7301229696860206 0.08118412848995638 0.022516891543707507
                  CHANNELS 3 Yrotation Xrotation Zrotation
                  JOINT rightMiddleIntermediate
                  {
                    OFFSET -0.4076277831942017 -0.000001240188283180288 -1.6203245635504349e-7
                    CHANNELS 3 Yrotation Xrotation Zrotation
                    JOINT rightMiddleDistal
                    {
                      OFFSET -0.2514739255593972 0.0000013850839168938478 -1.8644847207816007e-8
                      CHANNELS 3 Yrotation Xrotation Zrotation
                      End Site
                      {
                        OFFSET -0.2514739255593972 0.0000013850839168938478 -1.8644847207816007e-8
                      }
                    }
                  }
                }
                JOINT rightRingProximal
                {
                  OFFSET -0.7218060861525873 0.08118280646416753 -0.1494689818508163
                  CHANNELS 3 Yrotation Xrotation Zrotation
                  JOINT rightRingIntermediate
                  {
                    OFFSET -0.3781267508900358 0.000001373626195677602 -1.4143108284514483e-7
                    CHANNELS 3 Yrotation Xrotation Zrotation
                    JOINT rightRingDistal
                    {
                      OFFSET -0.21814333268795483 -0.0027137626495670197 -0.004991775417842292
                      CHANNELS 3 Yrotation Xrotation Zrotation
                      End Site
                      {
                        OFFSET -0.21814333268795483 -0.0027137626495670197 -0.004991775417842292
                      }
                    }
                  }
                }
                JOINT rightThumbProximal
                {
                  OFFSET -0.10743676110519984 -0.16423092885053192 -0.07708859146227388
                  CHANNELS 3 Yrotation Xrotation Zrotation
                  JOINT rightThumbIntermediate
                  {
                    OFFSET -0.40350402100066307 -0.01735099334274981 0.315629965828783
                    CHANNELS 3 Yrotation Xrotation Zrotation
                    JOINT rightThumbDistal
                    {
                      OFFSET -0.2320014489535681 -0.01842351809041043 0.21271298411519196
                      CHANNELS 3 Yrotation Xrotation Zrotation
                      End Site
                      {
                        OFFSET -0.2320014489535681 -0.01842351809041043 0.21271298411519196
                      }
                    }
                  }
                }
              }
            }
          }
        }
      }
    }
  }
  JOINT leftUpperLeg
  {
    OFFSET 0.8487163290887698 -0.43932186100277326 0
    CHANNELS 3 Yrotation Xrotation Zrotation
    JOINT leftLowerLeg
    {
      OFFSET 0 -3.882816707004296 0
      CHANNELS 3 Yrotation Xrotation Zrotation
      JOINT leftFoot
      {
        OFFSET 0 -4.570431027442807 0.004629272230691511
        CHANNELS 3 Yrotation Xrotation Zrotation
        JOINT leftToes
        {
          OFFSET 0 -0.698875637876343 1.214565366696912
          CHANNELS 3 Yrotation Xrotation Zrotation
          End Site
          {
            OFFSET 0 -0.698875637876343 1.214565366696912
          }
        }
      }
    }
  }
  JOINT rightUpperLeg
  {
    OFFSET -0.8487163290887698 -0.43932186100277326 0
    CHANNELS 3 Yrotation Xrotation Zrotation
    JOINT rightLowerLeg
    {
      OFFSET 0 -3.882816707004296 0
      CHANNELS 3 Yrotation Xrotation Zrotation
      JOINT rightFoot
      {
        OFFSET 0 -4.570431027442807 0.004629272230691511
        CHANNELS 3 Yrotation Xrotation Zrotation
        JOINT rightToes
        {
          OFFSET 0 -0.698875637876343 1.214565366696912
          CHANNELS 3 Yrotation Xrotation Zrotation
          End Site
          {
            OFFSET 0 -0.698875637876343 1.214565366696912
          }
        }
      }
    }
  }
}
MOTION
Frames: 4
Frame Time: 0.03333333333333333
-0.0022578483913093805 -4.113105934190113 0.2660026550292969 0.23326162568373812 0.14348332124774485 0.9993513810908261 -0.07050372735546473 10.430188418735126 -1.6101378606307748 0.4545851073625983 -0.3969587491745358 -0.6647019320012729 0 0 0 -1.2783660346165233 -1.0013569215102536 0.5083618896291674 -4.448502694432883 -8.858136164663769 -4.578990726221392 0 0 0 0 0 0 -15.344403499107623 0.8159853002337346 -6.391347263577168 -21.93752911067713 3.662749490035943 -50.24794273757688 -62.01204606281549 -6.239498341145513 4.6375366460802105 0.616034771070501 31.855721206875543 43.12424140365714 2.6037675991797857 -0.5949189393303032 -26.95166534267243 1.853689457480055 0.3469456879269544 -21.201991799322197 0.860302456354739 0.07271512722846897 -9.66379399842043 10.405101619027544 2.9048885885227094 -13.636067479727187 1.2203065240757176 0.14738724050305915 -13.774604774132804 0.9757330818830121 0.09372737271900775 -10.975559551718394 6.968727911280666 1.6864431434329414 -16.436242210077637 1.6953571879717633 0.2885069423088564 -19.315866994059327 1.4311990573142452 0.2038642746249287 -16.215193335946825 9.380493459908665 2.528766327204954 -13.978538000918697 1.3467452277197816 0.18009545624194973 -15.23439875458314 1.5246230918436867 0.23201322223850385 -17.306055993848265 0.6994764125268028 7.877636045643693 20.62581088240757 20.653546391112013 3.2100825842914227 -23.478763447899123 29.55125162284797 -1.3693767867737054 3.184937003470518 -4.291094278918148 3.158326105576902 7.101623621418071 37.88288846377174 -4.212121902638114 54.53965725174707 54.92514160671732 -5.834921347826129 -3.80064066863212 13.28953419404292 42.511308558747665 -29.37452848957397 1.5119986257731004 2.34194999935702 13.592483167816514 -1.7210696870989253 0.39761971926866935 26.016674645321668 -0.6263359973034558 0.05032151856097161 9.18599017893669 -11.696535577492854 -9.925414088050633 9.233472558695171 -0.43792867005546454 0.024515804175279834 6.409035480152928 -0.434394981708514 0.02412689190157931 6.357174379064261 -3.6151526900771427 0.25882756385226074 2.5649427802474833 -1.9028316949667934 0.4922862851436499 29.007764531665895 -0.3672975983991571 0.01723447018374768 5.372199591722982 -7.494496963573425 1.1051689119839558 4.3193744314468825 -0.8377393363901146 0.09048232830876443 12.329288724863822 -0.6889229853862073 0.06096021023570883 10.113326872279004 -2.4284014499104623 -7.807950642366199 -17.11761799094804 -24.81765577143259 4.125821205882242 33.20738559622044 -37.597050296786215 -1.561036806829524 -8.504457398958637 -48.30935855172808 -83.74978347528776 59.50249004245795 40.89004612453192 80.13380606657381 40.622735085470005 -7.134144722999182 4.276699589207031 -6.58650655375595 0.000007547683971066565 -0.10311152621509641 -5.280096177410431e-7 61.48512424648113 -82.72241422906856 -69.15355031399545 -38.96525856365654 80.15309779798261 -40.33390943674377 0.07585147094714655 5.437459380393249 7.137490028990553 0.000008273348752521028 -0.19163724268749507 3.225628491750529e-7
-0.0023404087405651808 -4.112825553941089 0.26570603251457214 0.23305198475452693 0.14350425210793263 0.99925229853876 -0.07066935044422343 10.429109349633015 -1.609994008745627 0.45366117024434655 -0.39720728331546357 -0.6644807745794795 0 0 0 -1.2764115757981151 -1.0135237960825958 0.5044253772208046 -4.454663183620796 -8.862587930931003 -4.535820555414733 0 0 0 0 0 0 -15.325098312833733 0.8181248610907434 -6.394068967253021 -21.976662311321665 3.6651573575964327 -50.23232486769258 -61.99898147044877 -6.238849901262203 4.63592886410777 0.6273087118601337 31.83529031346619 43.12969071668396 2.601836138175889 -0.5950225716939875 -26.93241256932114 1.8510234064494986 0.34590817389971695 -21.169873955334886 0.8574463432849837 0.07223254462907347 -9.631639402039319 10.408659071264834 2.9020553321345357 -13.661804479596384 1.2175007685441104 0.14670120443859938 -13.742519966196905 0.9729689995239412 0.09319504414234955 -10.943958212402912 6.969740631753968 1.6877488091579993 -16.452358539387372 1.6914467433642097 0.28714160761901286 -19.26936452298635 1.4271839219475946 0.20270969858373147 -16.16878037724121 9.381091036116223 2.5302879538401553 -13.990841640270368 1.3438328307761507 0.17929593331071306 -15.200601537689444 1.5217376479607776 0.23110552003742635 -17.272062551627364 0.6994764125268028 7.877636045643693 20.62581088240757 20.653546391112013 3.2100825842914227 -23.478763447899123 29.55125162284797 -1.3693767867737054 3.184937003470518 -4.2871726383986966 3.161233569625476 7.141036769698083 38.08459603399788 -4.063969621317306 54.36173547074798 54.95504180983716 -5.8368141555492175 -3.804112210174531 13.086672180673409 42.299172079029674 -29.600237544794226 1.5119986257731004 2.34194999935702 13.592483167816514 -1.7210696870989253 0.39761971926866935 26.016674645321668 -0.6263359973034558 0.05032151856097161 9.18599017893669 -11.696535577492854 -9.925414088050633 9.233472558695171 -0.43792867005546454 0.024515804175279834 6.409035480152928 -0.434394981708514 0.02412689190157931 6.357174379064261 -3.6151526900771427 0.25882756385226074 2.5649427802474833 -1.9028316949667934 0.4922862851436499 29.007764531665895 -0.3672975983991571 0.01723447018374768 5.372199591722982 -7.494496963573425 1.1051689119839558 4.3193744314468825 -0.8377393363901146 0.09048232830876443 12.329288724863822 -0.6889229853862073 0.06096021023570883 10.113326872279004 -2.4284014499104623 -7.807950642366199 -17.11761799094804 -24.81765577143259 4.125821205882242 33.20738559622044 -37.597050296786215 -1.561036806829524 -8.504457398958637 -48.297417264209614 -83.75175999407081 59.487751604881325 40.90753552330255 80.13400537629111 40.640137428918294 -7.133047511695992 4.274549780537762 -6.559182069389091 0.000007547683971066565 -0.10311152621509641 -5.280096177410431e-7 61.478015132659515 -82.72354660165279 -69.14475058268044 -38.97022484706399 80.15323758500165 -40.3388133281233 0.07458691261303729 5.43627670592238 7.112033790346551 0.000008273348752521028 -0.19163724268749507 3.225628491750529e-7
-0.00235579302534461 -4.112600009965259 0.26556435227394104 0.23288184455099833 0.14338899230445928 0.999318562845582 -0.07098424330466961 10.42948611187115 -1.609965273412726 0.45163792698997113 -0.39777148119013234 -0.6640545998402838 0 0 0 -1.287570306505239 -1.050736115959377 0.5223107770638329 -4.480409272273085 -8.80602460369821 -4.592731038703938 0 0 0 0 0 0 -15.320369631964756 0.8231661645177504 -6.378063504412026 -22.011107319022216 3.6596033164769435 -50.23171428948452 -61.98066147486789 -6.237967852536605 4.633701468783109 0.6351774969588393 31.81073259306256 43.14447529996044 2.5978636133337942 -0.5951969643680631 -26.89288073825297 1.8454901231154708 0.34377316750673564 -21.103894471760082 0.8516378652395117 0.07122987340714673 -9.565662039807275 10.415899989979367 2.896225988754214 -13.714682058369585 1.2117673364923602 0.14530189156966422 -13.676652877758407 0.9672730345915979 0.09208960592860112 -10.879085919816232 6.9717618375775245 1.690402850506299 -16.485319329760337 1.683376459241857 0.28432833511004446 -19.174106538071033 1.4190348442623968 0.2003430100563445 -16.073544407789978 9.382273545113243 2.533394239874978 -14.016087400990518 1.3378457308211054 0.17767226140079556 -15.131264551536805 1.5157876373617143 0.22926767739075637 -17.20225952201236 0.6994764125268028 7.877636045643693 20.62581088240757 20.653546391112013 3.2100825842914227 -23.478763447899123 29.55125162284797 -1.3693767867737054 3.184937003470518 -4.272567680174358 3.1664942169690153 7.225770393677204 38.19071937817391 -3.9206942239134417 54.19491523441002 55.02528451966691 -5.841345591533008 -3.8121315094333594 12.934267678871768 42.166441712441404 -29.738342830737 1.5119986257731004 2.34194999935702 13.592483167816514 -1.7210696870989253 0.39761971926866935 26.016674645321668 -0.6263359973034558 0.05032151856097161 9.18599017893669 -11.696535577492854 -9.925414088050633 9.233472558695171 -0.43792867005546454 0.024515804175279834 6.409035480152928 -0.434394981708514 0.02412689190157931 6.357174379064261 -3.6151526900771427 0.25882756385226074 2.5649427802474833 -1.9028316949667934 0.4922862851436499 29.007764531665895 -0.3672975983991571 0.01723447018374768 5.372199591722982 -7.494496963573425 1.1051689119839558 4.3193744314468825 -0.8377393363901146 0.09048232830876443 12.329288724863822 -0.6889229853862073 0.06096021023570883 10.113326872279004 -2.4284014499104623 -7.807950642366199 -17.11761799094804 -24.81765577143259 4.125821205882242 33.20738559622044 -37.597050296786215 -1.561036806829524 -8.504457398958637 -48.276143133245505 -83.7493443334305 59.46784365999554 40.87942393199616 80.12968125038498 40.61173072522484 -7.133217455956038 4.277888364929981 -6.557938777478177 0.000007547683971066565 -0.10311152621509641 -5.280096177410431e-7 61.453759593384866 -82.72462521470935 -69.11833437814289 -38.962635556944804 80.14844600784187 -40.3308177585791 0.07441880305773667 5.438215812999101 7.107368930949529 0.000008273348752521028 -0.19163724268749507 3.225628491750529e-7
-0.0024043319281190634 -4.112538974809009 0.26561781764030457 0.2326406280502949 0.14307404222637513 0.9993108800275368 -0.07108527657818224 10.43511068808373 -1.6097042017964018 0.44965425002373843 -0.39831686894816576 -0.6636032931439085 0 0 0 -1.3101677833608194 -1.0856549102674435 0.5590605256653985 -4.514505861014477 -8.725845895633126 -4.744650706657715 0 0 0 0 0 0 -15.348251676890618 0.826832008237851 -6.348151141640817 -22.0014657179633 3.655407437484924 -50.25295648532138 -61.97926314338826 -6.237873807506885 4.633555986935256 0.6417927888206605 31.79843609019371 43.16754684877262 2.593769447609148 -0.5954126072141029 -26.852093574502266 1.8398353438101465 0.34160601110574784 -21.0358131805403 0.8456258914210041 0.07024217660762704 -9.497536476341578 10.423399024718899 2.890210956802573 -13.769229153354786 1.2058815401437253 0.14386553289846457 -13.608673136825145 0.9613871321073494 0.09095895471436082 -10.812161381124902 6.973816086795551 1.6931427372105115 -16.51921836219927 1.6750786435190368 0.2814380893274083 -19.075904325158703 1.410582815048073 0.19792609566824812 -15.975251671664687 9.383512252408382 2.536605864167024 -14.04213667146638 1.3316391913835433 0.17599634911205203 -15.059675096851416 1.5096271710475495 0.22735091365702392 -17.13027271312295 0.6994764125268028 7.877636045643693 20.62581088240757 20.653546391112013 3.2100825842914227 -23.478763447899123 29.55125162284797 -1.3693767867737054 3.184937003470518 -4.254438246958056 3.1715447542859168 7.3148123997656755 38.115293306634356 -3.8715064895036573 54.14182820678945 55.104162216078564 -5.846401447191749 -3.8211548563454656 12.94050624290408 42.21084167350175 -29.679924496376056 1.5119986257731004 2.34194999935702 13.592483167816514 -1.7210696870989253 0.39761971926866935 26.016674645321668 -0.6263359973034558 0.05032151856097161 9.18599017893669 -11.696535577492854 -9.925414088050633 9.233472558695171 -0.43792867005546454 0.024515804175279834 6.409035480152928 -0.434394981708514 0.02412689190157931 6.357174379064261 -3.6151526900771427 0.25882756385226074 2.5649427802474833 -1.9028316949667934 0.4922862851436499 29.007764531665895 -0.3672975983991571 0.01723447018374768 5.372199591722982 -7.494496963573425 1.1051689119839558 4.3193744314468825 -0.8377393363901146 0.09048232830876443 12.329288724863822 -0.6889229853862073 0.06096021023570883 10.113326872279004 -2.4284014499104623 -7.807950642366199 -17.11761799094804 -24.81765577143259 4.125821205882242 33.20738559622044 -37.597050296786215 -1.561036806829524 -8.504457398958637 -48.25951575299038 -83.74981484373923 59.44995983071191 40.88115202140278 80.12776887133133 40.61327562689151 -7.133314307617905 4.278190589084537 -6.561200989211061 0.000007547683971066565 -0.10311152621509641 -5.280096177410431e-7 61.44264204745849 -82.7223063932002 -69.10943514197639 -38.94121138597365 80.14706885641947 -40.30938049439251 0.07479159705524627 5.439889059023078 7.11358298279567 0.000008273348752521028 -0.19163724268749507 3.225628491750529e-7
